<?xml version="1.0" encoding="UTF-8"?>
<svg version="1.1" xmlns="http://www.w3.org/2000/svg" width="700" height="700">
<path d="M0 0 C0.64888184 0.34111816 1.29776367 0.68223633 1.96630859 1.03369141 C17.09898945 9.03415085 31.04321826 18.8203845 44 30 C44.75667969 30.64582031 45.51335937 31.29164063 46.29296875 31.95703125 C59.44739873 43.48092887 71.66836442 55.87873683 82 70 C82.84604192 71.12783846 83.69239736 72.25544181 84.5390625 73.3828125 C93.92495524 86.03375726 101.4448419 99.52758761 108.3125 113.6875 C108.80411621 114.69594971 109.29573242 115.70439941 109.80224609 116.7434082 C113.41479194 124.33638752 116.29677253 132.04685522 119 140 C119.556306 140.00586624 120.112612 140.01173248 120.68577576 140.01777649 C126.51048665 140.08203887 132.33466169 140.1665405 138.15893555 140.26245117 C140.32845973 140.29556998 142.49806738 140.32364193 144.66772461 140.34643555 C147.79837389 140.38022212 150.92826726 140.43254978 154.05859375 140.48828125 C155.01833603 140.49467117 155.97807831 140.5010611 156.96690369 140.50764465 C165.55363116 140.69233628 173.23842142 142.44047984 180 148 C186.60152586 155.5355547 188.46742703 161.44515626 188.3203125 171.48046875 C187.7004969 178.29088158 184.8449252 184.1550748 180 189 C173.63271615 193.54621484 168.91090532 195.15174028 161.05078125 195.09765625 C160.27816452 195.0962413 159.50554779 195.09482635 158.70951843 195.09336853 C156.24380611 195.08777466 153.77818485 195.07522333 151.3125 195.0625 C149.63997527 195.05748421 147.96744912 195.05292144 146.29492188 195.04882812 C142.19657954 195.03780724 138.09830521 195.02054684 134 195 C134.03552979 195.55647217 134.07105957 196.11294434 134.10766602 196.6862793 C138.23550528 264.08927739 117.3029851 329.65439619 73 381 C72.35417969 381.75667969 71.70835937 382.51335937 71.04296875 383.29296875 C59.51907113 396.44739873 47.12126317 408.66836442 33 419 C31.87216154 419.84604192 30.74455819 420.69239736 29.6171875 421.5390625 C16.04357856 431.60429618 1.30842849 439.88204551 -14 447 C-14.71317383 447.33241699 -15.42634766 447.66483398 -16.16113281 448.00732422 C-74.17518195 474.64278546 -143.19324139 475.87765929 -202.94311523 454.23461914 C-232.82786052 443.00103001 -260.3255264 427.08728707 -283.66796875 405.1796875 C-285.68700592 403.29254723 -287.75193267 401.51702498 -289.875 399.75 C-320.97272403 372.51574066 -347.43531573 329.17939516 -357 289 C-357 287.68 -357 286.36 -357 285 C-357.64622314 285.00888245 -358.29244629 285.01776489 -358.95825195 285.0269165 C-365.70694094 285.11566825 -372.45546309 285.17584978 -379.20458984 285.21972656 C-381.72060891 285.23979516 -384.23658161 285.2670563 -386.75244141 285.30175781 C-390.37674428 285.35048312 -394.00042841 285.37301722 -397.625 285.390625 C-399.30203003 285.42159271 -399.30203003 285.42159271 -401.01293945 285.45318604 C-409.22810532 285.45552645 -413.75058516 283.66823722 -420.6875 279.3125 C-426.47250865 273.52749135 -429.14466247 266.50817267 -429.375 258.4375 C-429.30233926 250.61436021 -427.54540607 245.15730356 -422.4609375 239.1953125 C-412.09717071 229.32271949 -399.18405164 230.50859694 -385.875 230.75 C-383.94533102 230.77009397 -382.01564185 230.78833961 -380.0859375 230.8046875 C-375.39012112 230.84845765 -370.69528597 230.91732532 -366 231 C-366.02356567 229.75017334 -366.02356567 229.75017334 -366.04760742 228.47509766 C-366.48336965 201.65641494 -364.56089998 176.12340023 -358 150 C-357.81211914 149.24460937 -357.62423828 148.48921875 -357.43066406 147.7109375 C-353.05075859 130.5348376 -345.91411562 114.10849566 -337.765625 98.40625 C-336.28210752 95.54424282 -334.88201519 92.66144533 -333.5 89.75 C-324.68417289 72.23472634 -311.10496309 56.44147363 -298 42 C-297.29488281 41.20722656 -296.58976563 40.41445312 -295.86328125 39.59765625 C-293.37300165 37.46238507 -291.22214341 37.76844835 -288.05932617 37.52099609 C-285.45492955 36.86210073 -284.52922107 35.83155355 -282.73828125 33.8515625 C-279.10441401 30.0325856 -275.20633507 26.8531125 -271 23.6875 C-270.2587085 23.12699951 -269.51741699 22.56649902 -268.75366211 21.98901367 C-231.83697142 -5.68176878 -189.04950419 -23.25148998 -143 -28 C-142.04867188 -28.11085938 -141.09734375 -28.22171875 -140.1171875 -28.3359375 C-91.86170275 -33.09714533 -42.64851706 -22.74228128 0 0 Z " fill="#FEE100" transform="translate(435,130)"/>
<path d="M0 0 C14.82139392 -0.07024763 29.64276565 -0.12306505 44.46429253 -0.15543652 C51.34702004 -0.17087025 58.2296438 -0.19189241 65.11230469 -0.22631836 C71.7582996 -0.25954455 78.4042153 -0.2768693 85.05029678 -0.28463173 C87.58193785 -0.29016145 90.11357323 -0.30095959 92.6451683 -0.31719017 C96.19960873 -0.33906571 99.75360822 -0.34196262 103.30810547 -0.34057617 C104.34748764 -0.351362 105.38686981 -0.36214783 106.45774841 -0.3732605 C116.03597797 -0.33301026 124.29409705 1.24030503 131.3046875 8.06640625 C136.66930404 14.18503571 137.67487521 19.71040438 137.375 27.81640625 C136.44895398 35.67815107 133.24054139 40.41529044 127.29296875 45.4921875 C119.04030155 50.91898399 111.41675338 50.41783727 101.77929688 50.3515625 C92.92110985 50.47509329 86.39803932 52.27858211 79.5625 58.0625 C79.046875 58.701875 78.53125 59.34125 78 60 C77.46375 60.639375 76.9275 61.27875 76.375 61.9375 C71.99835536 68.50246697 72.43831275 75.36105337 73 83 C74.25539086 88.90125337 76.97156049 93.83595315 81.9296875 97.37890625 C86.88637753 100.56534984 90.53810429 102.12039417 96.51056004 102.15377426 C98.23977517 102.16693637 98.23977517 102.16693637 100.00392395 102.18036437 C101.27626812 102.18495485 102.54861228 102.18954532 103.85951233 102.1942749 C105.22028595 102.20258399 106.58105715 102.21129785 107.94182581 102.22038293 C111.68964736 102.2440303 115.43747518 102.26126403 119.18533599 102.27731514 C122.39796212 102.291846 125.61056373 102.31002023 128.82317127 102.32814655 C159.28159122 102.49921914 189.74059266 102.5837702 220.19939518 102.65206528 C224.16475016 102.66111384 228.13010473 102.67032347 232.09545898 102.6796875 C233.08103286 102.68200741 234.06660675 102.68432733 235.0820465 102.68671754 C251.04443364 102.72548319 267.00633938 102.8060166 282.96846861 102.90281627 C299.35603843 103.00137236 315.74335839 103.05824392 332.1312179 103.07564378 C341.33271868 103.0865468 350.53334086 103.11628303 359.73454475 103.19359589 C367.57184505 103.25942814 375.40815552 103.28802335 383.24572671 103.26802835 C387.2436675 103.2590049 391.23946794 103.26770375 395.23705864 103.32471848 C398.90184658 103.37658018 402.56302084 103.37704919 406.22793107 103.33767512 C408.17211141 103.3298488 410.11628112 103.3760581 412.05987221 103.42455649 C418.36169697 103.30337959 421.99884183 102.65385157 426.50440001 97.97204877 C428.45606203 95.73190378 430.26095051 93.40781826 432 91 C432 95.16750933 429.73647371 96.83186145 427 99.6875 C426.20118408 100.53320557 426.20118408 100.53320557 425.38623047 101.39599609 C423.60107977 103.27410742 421.80168829 105.13775471 420 107 C419.36868164 107.6585498 418.73736328 108.31709961 418.08691406 108.99560547 C409.2755313 118.15706566 400.24530565 126.47816718 390 134 C388.8710548 134.84760437 387.74214857 135.69526066 386.61328125 136.54296875 C373.03928056 146.60497842 358.30708492 154.88267023 343 162 C342.28682617 162.33241699 341.57365234 162.66483398 340.83886719 163.00732422 C282.82481805 189.64278546 213.80675861 190.87765929 154.05688477 169.23461914 C124.17213948 158.00103001 96.6744736 142.08728707 73.33203125 120.1796875 C71.31299408 118.29254723 69.24806733 116.51702498 67.125 114.75 C36.02727597 87.51574066 9.56468427 44.17939516 0 4 C0 2.68 0 1.36 0 0 Z " fill="#010000" transform="translate(78,415)"/>
<path d="M0 0 C0.64888184 0.34111816 1.29776367 0.68223633 1.96630859 1.03369141 C17.09898945 9.03415085 31.04321826 18.8203845 44 30 C44.75667969 30.64582031 45.51335937 31.29164063 46.29296875 31.95703125 C59.44739873 43.48092887 71.66836442 55.87873683 82 70 C82.84604192 71.12783846 83.69239736 72.25544181 84.5390625 73.3828125 C97.3663823 90.67234677 119 119.96027884 119 142 C102.48361794 142.09362414 85.96732255 142.16406744 69.45073891 142.20724869 C61.78103364 142.22783536 54.11149367 142.25588091 46.44189453 142.30175781 C39.75362957 142.34174549 33.0654844 142.3674611 26.37710321 142.37635398 C22.83871077 142.38154869 19.30066087 142.39367548 15.76237869 142.42292023 C11.80327396 142.45537487 7.84449808 142.45595178 3.88525391 142.45410156 C2.72431213 142.46848267 1.56337036 142.48286377 0.36724854 142.49768066 C-8.57367822 142.45260827 -16.11759209 140.90035104 -22.875 134.75 C-29.10331865 127.75602516 -30.76085213 121.92060126 -30.4375 112.47265625 C-29.47561631 104.83770448 -26.43561314 99.8257823 -20.5 95 C-14.98965359 90.96425334 -10.59955025 89.75868333 -3.7578125 89.7265625 C-2.34764834 89.70627162 -0.93749215 89.6854208 0.47265625 89.6640625 C2.67340863 89.64151079 4.87384454 89.62500308 7.07470703 89.61914062 C9.21443459 89.60955188 11.35277505 89.57570667 13.4921875 89.5390625 C14.76433105 89.53084473 16.03647461 89.52262695 17.34716797 89.51416016 C23.9657835 88.58254645 28.61092661 85.08059529 32.7109375 79.90625 C37.04971851 73.49011323 38.10625969 66.63744671 37 59 C34.71609351 51.74648217 30.46579634 46.04246305 24 42 C17.1039809 38.79370296 11.11316723 38.56953679 3.57287598 38.60127258 C2.33280777 38.59462576 1.09273955 38.58797893 -0.18490648 38.58113068 C-3.61026179 38.56574973 -7.03515152 38.56365469 -10.46050787 38.56726015 C-14.16050535 38.56788548 -17.8604308 38.55125012 -21.56039429 38.53674316 C-27.96527138 38.51397807 -34.37009416 38.50207567 -40.77500916 38.49761391 C-50.0353522 38.49114721 -59.29559716 38.4682007 -68.55590063 38.44127061 C-83.58119859 38.39802103 -98.60649242 38.36804383 -113.63183594 38.34643555 C-128.22495557 38.32542038 -142.81804137 38.29814058 -157.41113281 38.26245117 C-158.31110369 38.26025235 -159.21107457 38.25805352 -160.13831729 38.25578807 C-164.65334199 38.24471828 -169.16836637 38.2335255 -173.68339062 38.22227156 C-211.12223122 38.12911235 -248.5610885 38.05750238 -286 38 C-285.07022484 36.89108418 -284.13690361 35.78514112 -283.20214844 34.68041992 C-282.68279724 34.06422287 -282.16344604 33.44802582 -281.62835693 32.81315613 C-279.08886544 29.98546248 -276.23471761 27.65264776 -273.25 25.3125 C-272.60587158 24.80412598 -271.96174316 24.29575195 -271.2980957 23.77197266 C-234.17653322 -5.07227499 -189.80385117 -23.1737036 -143 -28 C-142.04867187 -28.11085938 -141.09734375 -28.22171875 -140.1171875 -28.3359375 C-91.86170275 -33.09714533 -42.64851706 -22.74228128 0 0 Z " fill="#000000" transform="translate(435,130)"/>
<path d="M0 0 C14.08322739 10.8923423 26.67182842 27.70153019 29.82861328 45.66162109 C30.4431324 50.79128422 30.50218395 55.9365582 30.54296875 61.09765625 C30.5584375 62.72441284 30.5584375 62.72441284 30.57421875 64.3840332 C30.35297536 84.65699492 21.67411081 102.7075964 7.90625 117.33203125 C-8.05395651 132.37958997 -29.04208775 139.42578821 -50.78515625 139.25390625 C-70.93654745 138.29156665 -90.1032742 127.99627637 -103.8046875 113.50390625 C-117.72074982 96.64856348 -124.49719692 75.95925256 -123.09716797 54.08691406 C-121.5190387 37.62113155 -113.99563254 22.1048875 -102.89453125 9.97265625 C-102.30414063 9.29074219 -101.71375 8.60882813 -101.10546875 7.90625 C-75.06042479 -20.41080843 -30.40681942 -21.29708405 0 0 Z " fill="#010101" transform="translate(358.89453125,283.02734375)"/>
<path d="M0 0 C1.23169922 1.12341797 1.23169922 1.12341797 2.48828125 2.26953125 C2.98924316 2.72279785 3.49020508 3.17606445 4.00634766 3.64306641 C22.39180079 20.48305966 36.36854333 44.38516192 37.61279297 69.81420898 C38.40493862 98.29455132 32.79451382 126.15178264 12.92578125 147.70703125 C11.13206493 149.58069291 9.31160812 151.42433539 7.48828125 153.26953125 C6.84503906 153.98496094 6.20179688 154.70039063 5.5390625 155.4375 C-9.22662626 171.48437651 -32.96815021 181.59792937 -54.51171875 183.26953125 C-58.61690572 183.42849715 -62.71627368 183.45456993 -66.82421875 183.45703125 C-67.88833984 183.46927734 -68.95246094 183.48152344 -70.04882812 183.49414062 C-92.97565042 183.53610552 -115.43748842 174.50909558 -132.51171875 159.26953125 C-133.32769531 158.59535156 -134.14367187 157.92117188 -134.984375 157.2265625 C-153.47449967 141.53710587 -166.16658811 117.47733138 -168.51171875 93.26953125 C-169.24159421 77.88500334 -169.43830861 62.97256267 -164.51171875 48.26953125 C-164.30272949 47.63305664 -164.09374023 46.99658203 -163.87841797 46.34082031 C-154.94233803 19.76685974 -134.76433774 -1.26722824 -109.89599609 -13.64331055 C-74.92523676 -30.34028491 -29.71520574 -25.32035178 0 0 Z M-117.51171875 23.26953125 C-118.50945312 24.12417969 -118.50945312 24.12417969 -119.52734375 24.99609375 C-132.87242384 37.34291982 -141.78364212 56.2454607 -142.796875 74.34375 C-143.5073276 96.42845988 -136.73148736 116.20607825 -122.28515625 132.83203125 C-109.0635235 146.66101815 -90.41913132 156.30206288 -71.171875 157.47265625 C-48.67544478 157.76576935 -27.54913582 150.67409912 -11.11328125 134.99609375 C6.09224623 116.96387426 11.1388758 97.02906797 10.828125 72.859375 C10.54412324 64.57147314 8.85301215 57.85515867 5.48828125 50.26953125 C4.99199219 49.14804687 4.49570312 48.0265625 3.984375 46.87109375 C-5.1466254 28.34506402 -19.83843868 16.37126499 -38.51171875 8.26953125 C-40.0740625 7.58117187 -40.0740625 7.58117187 -41.66796875 6.87890625 C-68.16443315 -2.62235119 -96.87915179 5.50690782 -117.51171875 23.26953125 Z " fill="#FDFDFB" transform="translate(378.51171875,264.73046875)"/>
<path d="M0 0 C4.33320701 3.68236959 8.47729461 7.36838553 9.32226562 13.23901367 C10.02064574 33.43722215 10.02064574 33.43722215 4.91796875 39.33984375 C-2.86626452 46.07772387 -8.63163523 48.37273299 -18.890625 48.28515625 C-25.44373339 47.68418023 -31.35772104 44.64227896 -36 40 C-41.87281306 31.92488205 -42.98950838 24.98713106 -42 15 C-39.83094481 7.66170113 -35.44650109 2.08278403 -29 -2 C-19.5619861 -6.53087378 -8.6386917 -6.08717938 0 0 Z " fill="#FEE100" transform="translate(684,276)"/>
<path d="M0 0 C0 7.92 0 15.84 0 24 C-1.794375 24.04125 -3.58875 24.0825 -5.4375 24.125 C-11.9861651 24.62993859 -16.00346702 26.87407504 -21 31 C-28.31405704 27.8749029 -34.03098993 20.73006055 -38 14 C-26.45553692 2.24672234 -15.97465888 -0.83346046 0 0 Z " fill="#F8F8F8" transform="translate(311,286)"/>
<path d="M0 0 C1.60584961 -0.01836914 1.60584961 -0.01836914 3.24414062 -0.03710938 C4.27345703 -0.03904297 5.30277344 -0.04097656 6.36328125 -0.04296875 C7.29052002 -0.04707764 8.21775879 -0.05118652 9.1730957 -0.05541992 C11.80015913 0.19838415 13.43223468 0.8542878 15.6875 2.1875 C15.12466309 2.23237549 14.56182617 2.27725098 13.98193359 2.32348633 C-16.3169557 4.80259863 -45.0385119 13.14612903 -66.515625 36.05859375 C-78.80685387 50.62102795 -87.55452604 66.65469235 -92.3125 85.1875 C-92.6425 85.1875 -92.9725 85.1875 -93.3125 85.1875 C-94.61689424 66.59988211 -84.83422941 47.20901292 -73.3125 33.1875 C-72.71050781 32.42308594 -72.10851562 31.65867187 -71.48828125 30.87109375 C-57.85522938 14.43712137 -36.13332751 2.39788141 -14.8203125 0.35083008 C-9.88166685 0.02918347 -4.9475446 0.00303344 0 0 Z " fill="#0C0C0C" transform="translate(313.3125,251.8125)"/>
<path d="M0 0 C4.97357688 1.7342733 9.31498953 4.43327957 13.8125 7.125 C14.60076172 7.59292969 15.38902344 8.06085938 16.20117188 8.54296875 C18.13602454 9.69215397 20.06887228 10.84457003 22 12 C21.67 13.98 21.34 15.96 21 18 C15.16971962 17.45026573 10.41709832 15.7546141 5.0625 13.4375 C4.28326172 13.10814453 3.50402344 12.77878906 2.70117188 12.43945312 C0.79764697 11.63366651 -1.10163025 10.81785783 -3 10 C-3.1875 3.2421875 -3.1875 3.2421875 -1.5 1.0625 C-1.005 0.711875 -0.51 0.36125 0 0 Z " fill="#F4F4F4" transform="translate(263,311)"/>
<path d="M0 0 C0.33 0 0.66 0 1 0 C1.59471879 12.2908549 -2.33111233 23.21495828 -10.26171875 32.70703125 C-19.36435629 42.23836444 -30.40944378 49.09307392 -43.828125 50.2421875 C-45.8869898 50.24866192 -47.94584045 50.13926505 -50 50 C-50 49.67 -50 49.34 -50 49 C-49.06800781 48.79246094 -48.13601563 48.58492188 -47.17578125 48.37109375 C-30.45532084 44.33045671 -17.14589025 36.8594625 -7.5625 22.125 C-3.74801376 15.24569533 -1.85354842 7.59771331 0 0 Z " fill="#EAEAEA" transform="translate(365,355)"/>
<path d="M0 0 C0.66 0.33 1.32 0.66 2 1 C1.67 1.99 1.34 2.98 1 4 C-6.15868511 7.18518876 -13.22388759 8.52719406 -21 8 C-21 7.67 -21 7.34 -21 7 C-19.98679687 6.74605469 -18.97359375 6.49210937 -17.9296875 6.23046875 C-16.57803342 5.88316874 -15.22647599 5.53549241 -13.875 5.1875 C-13.20984375 5.02185547 -12.5446875 4.85621094 -11.859375 4.68554688 C-8.51325651 3.81621217 -5.7484477 2.87305655 -2.6328125 1.30078125 C-1.76398438 0.87152344 -0.89515625 0.44226563 0 0 Z " fill="#CDCDCD" transform="translate(336,397)"/>
<path d="M0 0 C0.33 0 0.66 0 1 0 C1.18451025 9.41002278 1.18451025 9.41002278 0 14 C-2 11 -2 11 -1.7578125 8.30078125 C-1.54898437 7.31464844 -1.34015625 6.32851563 -1.125 5.3125 C-0.92132813 4.31863281 -0.71765625 3.32476562 -0.5078125 2.30078125 C-0.34023438 1.54152344 -0.17265625 0.78226562 0 0 Z " fill="#B8B8B8" transform="translate(365,355)"/>
</svg>
